<svg xmlns="http://www.w3.org/2000/svg" viewBox="0 0 64 64">
  <rect width="64" height="64" rx="14" fill="#0047FF"/>
  <g fill="#fff">
    <circle cx="32" cy="11" r="2.4"/>
    <circle cx="40.4" cy="12.7" r="1.7"/>
    <circle cx="47.6" cy="17.4" r="2.4"/>
    <circle cx="52.3" cy="24.6" r="1.7"/>
    <circle cx="53" cy="32" r="2.4"/>
    <circle cx="52.3" cy="39.4" r="1.7"/>
    <circle cx="47.6" cy="46.6" r="2.4"/>
    <circle cx="40.4" cy="51.3" r="1.7"/>
    <circle cx="32" cy="53" r="2.4"/>
    <circle cx="23.6" cy="51.3" r="1.7"/>
    <circle cx="16.4" cy="46.6" r="2.4"/>
    <circle cx="11.7" cy="39.4" r="1.7"/>
    <circle cx="11" cy="32" r="2.4"/>
    <circle cx="11.7" cy="24.6" r="1.7"/>
    <circle cx="16.4" cy="17.4" r="2.4"/>
    <circle cx="23.6" cy="12.7" r="1.7"/>
    <circle cx="42" cy="20" r="2.4"/>
    <circle cx="38" cy="25" r="1.8"/>
    <circle cx="34" cy="30" r="1.3"/>
    <circle cx="30" cy="35" r="0.8"/>
    <circle cx="26" cy="40" r="0.5"/>
  </g>
</svg>
